<?xml version="1.0" encoding="UTF-8" standalone="no"?>
<svg
   xmlns:dc="http://purl.org/dc/elements/1.1/"
   xmlns:cc="http://creativecommons.org/ns#"
   xmlns:rdf="http://www.w3.org/1999/02/22-rdf-syntax-ns#"
   xmlns:svg="http://www.w3.org/2000/svg"
   xmlns="http://www.w3.org/2000/svg"
   xmlns:sodipodi="http://sodipodi.sourceforge.net/DTD/sodipodi-0.dtd"
   xmlns:inkscape="http://www.inkscape.org/namespaces/inkscape"
   inkscape:version="1.0 (4035a4f, 2020-05-01)"
   height="300"
   width="300"
   sodipodi:docname="GestioÌn DAPP.svg"
   xml:space="preserve"
   viewBox="0 0 300 300"
   y="0px"
   x="0px"
   id="Capa_1"
   version="1.1"><metadata
   id="metadata43"><rdf:RDF><cc:Work
       rdf:about=""><dc:format>image/svg+xml</dc:format><dc:type
         rdf:resource="http://purl.org/dc/dcmitype/StillImage" /><dc:title></dc:title></cc:Work></rdf:RDF></metadata><defs
   id="defs41">
	
	
</defs><sodipodi:namedview
   inkscape:current-layer="Capa_1"
   inkscape:window-maximized="1"
   inkscape:window-y="23"
   inkscape:window-x="0"
   inkscape:cy="176.11389"
   inkscape:cx="215.80888"
   inkscape:zoom="1.1270133"
   showgrid="false"
   id="namedview39"
   inkscape:window-height="675"
   inkscape:window-width="1280"
   inkscape:pageshadow="2"
   inkscape:pageopacity="0"
   guidetolerance="10"
   gridtolerance="10"
   objecttolerance="10"
   borderopacity="1"
   bordercolor="#666666"
   pagecolor="#ffffff" />
<style
   id="style10"
   type="text/css">
	.st0{fill:#1D1D1B;}
	.st1{font-family:'Assistant-Light';}
	.st2{font-size:36.563px;}
	.st3{font-family:'Assistant-Bold';}
	.st4{font-size:48.7507px;}
	.st5{font-family:'Assistant-Regular';}
	.st6{fill:#AA0000;}
</style>
<g
   transform="matrix(1.0251153,0,0,1.0084712,-17.129675,15.399353)"
   id="g34">
		<g
   id="g32">
			<path
   class="st6"
   d="M 170.25,56.14 C 169.43,43.97 159.28,34.31 146.9,34.31 c -10.56,0 -19.74,7.14 -22.54,17.06 -8.05,0.82 -15.51,4.38 -21.27,10.2 -6.5,6.58 -10.08,15.3 -10.08,24.55 0,4.59 0.91,9.14 2.64,13.36 -5.44,2.89 -10.1,7.04 -13.64,12.18 -4.43,6.43 -6.77,13.98 -6.77,21.81 0,14.43 7.89,27.37 20.41,34 -1.74,4.21 -2.64,8.75 -2.64,13.34 0,9.25 3.58,17.97 10.08,24.55 5.76,5.83 13.21,9.39 21.26,10.2 2.8,9.92 11.98,17.07 22.54,17.07 12.37,0 22.53,-9.65 23.35,-21.81 V 56.14 Z m -7.69,49.08 H 150.5 L 140.22,94.94 c 1.09,-2 1.68,-4.25 1.68,-6.59 0,-3.67 -1.43,-7.12 -4.03,-9.72 -5.36,-5.36 -14.08,-5.36 -19.44,0 -2.6,2.6 -4.03,6.05 -4.03,9.72 0,3.67 1.43,7.12 4.03,9.72 2.68,2.68 6.2,4.02 9.72,4.02 2.27,0 4.54,-0.56 6.58,-1.68 l 11.42,11.42 c 0.83,0.74 1.74,1.12 2.74,1.13 h 13.66 v 16.64 h -24.28 c -1.68,-5.69 -6.95,-9.86 -13.19,-9.86 -7.57,0 -13.74,6.16 -13.74,13.73 0,7.58 6.16,13.75 13.74,13.75 6.23,0 11.51,-4.17 13.19,-9.87 h 24.27 v 16.64 h -13.66 c -0.1,0 -0.19,0.01 -0.28,0.01 -0.9,0.06 -1.78,0.44 -2.47,1.12 l -11.42,11.42 c -5.21,-2.84 -11.89,-2.06 -16.3,2.34 -2.6,2.6 -4.03,6.05 -4.03,9.73 0,3.67 1.43,7.11 4.03,9.7 2.68,2.68 6.2,4.02 9.72,4.02 3.52,0 7.04,-1.34 9.71,-4.01 2.6,-2.59 4.03,-6.03 4.03,-9.7 0,-2.34 -0.58,-4.6 -1.68,-6.6 l 10.28,-10.29 h 12.06 v 47.5 c 0,8.64 -7.03,15.66 -15.66,15.66 v 0 c -6.43,0 -12.08,-3.95 -14.47,-9.66 2.83,-0.51 5.58,-1.37 8.23,-2.58 3.85,-1.77 7.29,-4.19 10.23,-7.19 1.5,-1.53 1.47,-3.98 -0.06,-5.48 -1.53,-1.5 -3.98,-1.47 -5.48,0.06 -2.28,2.32 -4.94,4.2 -7.93,5.57 -3.15,1.45 -6.5,2.25 -9.94,2.39 -14.75,-0.24 -26.73,-12.42 -26.73,-27.19 0,-4.67 1.2,-9.26 3.47,-13.3 0.55,-0.97 0.65,-2.13 0.28,-3.18 -0.37,-1.05 -1.18,-1.89 -2.21,-2.31 -11.73,-4.71 -19.3,-15.92 -19.3,-28.56 0,-12.64 7.58,-23.84 19.3,-28.54 2.3,-1.25 2.95,-3.08 1.94,-5.49 -2.27,-4.04 -3.47,-8.65 -3.47,-13.31 0,-14.77 11.98,-26.94 26.73,-27.19 3.42,0.14 6.77,0.94 9.94,2.39 2.99,1.37 5.66,3.25 7.92,5.57 0.76,0.78 1.77,1.17 2.77,1.17 0.97,0 1.95,-0.37 2.7,-1.1 1.53,-1.49 1.56,-3.95 0.07,-5.48 -2.93,-3.01 -6.38,-5.44 -10.25,-7.21 -2.66,-1.21 -5.41,-2.07 -8.22,-2.57 2.38,-5.7 8.04,-9.65 14.47,-9.65 8.64,0 15.66,7.03 15.66,15.66 v 47.51 z M 134.15,88.36 c 0,1.6 -0.62,3.11 -1.76,4.24 -2.34,2.34 -6.14,2.34 -8.48,0 -1.13,-1.13 -1.76,-2.64 -1.76,-4.24 0,-1.6 0.62,-3.11 1.76,-4.24 2.34,-2.34 6.14,-2.34 8.48,0 1.14,1.13 1.76,2.64 1.76,4.24 z m -3.05,45.12 c 0,3.31 -2.69,6 -6,6 -3.3,0 -5.99,-2.69 -5.99,-6 0,-3.3 2.69,-5.99 5.99,-5.99 3.31,0 6,2.69 6,5.99 z m 3.05,45.14 c 0,1.6 -0.62,3.1 -1.76,4.22 -2.34,2.34 -6.14,2.34 -8.48,0 -1.13,-1.13 -1.75,-2.62 -1.75,-4.22 0,-1.6 0.62,-3.11 1.76,-4.24 2.34,-2.34 6.14,-2.34 8.48,0 0,0 0,0 0,0 v 0 c 1.13,1.13 1.75,2.64 1.75,4.24 z"
   id="path20" />
			<g
   id="g28">
				<path
   class="st6"
   d="m 213.98,171.29 v -20.86 c 0,-2.09 -1.69,-3.78 -3.78,-3.78 -2.09,0 -3.78,1.69 -3.78,3.78 v 17.08 h -29.08 v 7.55 h 32.85 c 2.1,0.01 3.79,-1.69 3.79,-3.77 z"
   id="path22" />
				<path
   class="st6"
   d="m 213.98,95.68 c 0,-2.09 -1.69,-3.78 -3.78,-3.78 h -32.85 v 7.55 h 29.08 v 17.04 c 0,2.09 1.69,3.78 3.78,3.78 2.09,0 3.78,-1.69 3.78,-3.78 V 95.68 Z"
   id="path24" />
				<path
   class="st6"
   d="m 247.04,155.1 c 2.09,0 3.78,-1.69 3.78,-3.78 0,-2.09 -1.69,-3.78 -3.78,-3.78 h -14.31 v -10.28 h 14.31 c 2.09,0 3.78,-1.69 3.78,-3.78 0,-2.09 -1.69,-3.78 -3.78,-3.78 h -14.31 v -10.27 h 14.31 c 2.09,0 3.78,-1.69 3.78,-3.78 0,-2.09 -1.69,-3.78 -3.78,-3.78 h -14.31 v -10.28 h 14.31 c 2.09,0 3.78,-1.69 3.78,-3.78 0,-2.09 -1.69,-3.78 -3.78,-3.78 h -14.31 v -6.18 c 0,-1 -0.4,-1.96 -1.11,-2.67 L 220.7,74.26 c -0.71,-0.71 -1.67,-1.11 -2.67,-1.11 h -6.18 v -14.3 c 0,-2.09 -1.69,-3.78 -3.78,-3.78 -2.09,0 -3.78,1.69 -3.78,3.78 v 14.3 H 194 v -14.3 c 0,-2.09 -1.69,-3.78 -3.78,-3.78 -2.09,0 -3.78,1.69 -3.78,3.78 v 14.3 h -9.1 v 7.55 h 39.12 l 8.71,8.72 v 88.13 l -8.71,8.71 h -39.12 v 7.55 h 9.11 v 14.31 c 0,2.09 1.69,3.78 3.78,3.78 2.09,0 3.78,-1.69 3.78,-3.78 v -14.31 h 10.29 v 14.31 c 0,2.09 1.69,3.78 3.78,3.78 2.09,0 3.78,-1.69 3.78,-3.78 v -14.31 h 6.18 c 1,0 1.96,-0.4 2.67,-1.11 l 10.92,-10.92 c 0.71,-0.71 1.11,-1.67 1.11,-2.67 v -6.19 h 14.31 c 2.09,0 3.78,-1.69 3.78,-3.78 0,-2.09 -1.69,-3.78 -3.78,-3.78 H 232.74 V 155.1 Z"
   id="path26" />
			</g>
			<path
   class="st6"
   d="m 210.2,129.71 c -2.09,0 -3.78,1.69 -3.78,3.78 v 0.01 c 0,2.09 1.69,3.77 3.78,3.77 2.09,0 3.78,-1.7 3.78,-3.78 0,-2.09 -1.69,-3.78 -3.78,-3.78 z"
   id="path30" />
		</g>
	</g>
</svg>
