<?xml version="1.0" encoding="iso-8859-1"?>
<!-- Generator: Adobe Illustrator 17.1.0, SVG Export Plug-In . SVG Version: 6.00 Build 0)  -->
<!DOCTYPE svg PUBLIC "-//W3C//DTD SVG 1.1//EN" "http://www.w3.org/Graphics/SVG/1.1/DTD/svg11.dtd">
<svg version="1.1" id="Capa_1" xmlns="http://www.w3.org/2000/svg" xmlns:xlink="http://www.w3.org/1999/xlink" x="0px" y="0px"
	 viewBox="0 0 401 401" style="enable-background:new 0 0 401 401;" xml:space="preserve">
<g>
	<path d="M393,372.352h-9.25v-202.44l4.867,2.271c1.076,0.502,2.231,0.75,3.382,0.75c1.5,0,2.993-0.421,4.298-1.252
		c2.306-1.469,3.703-4.014,3.703-6.748v-32.135c0-3.108-1.8-5.935-4.617-7.25l-27.549-12.856V60.727c0-4.418-3.582-8-8-8H312.25
		c-4.418,0-8,3.582-8,8v22.295L155.049,13.399c-2.336-1.09-5.054-0.988-7.3,0.274L4.082,94.367C1.561,95.784,0,98.45,0,101.342
		v32.135c0,2.841,1.507,5.469,3.959,6.905c2.453,1.435,5.482,1.462,7.959,0.071l4.332-2.433v234.333H8.333c-4.418,0-8,3.582-8,8
		s3.582,8,8,8H24.25h351.5H393c4.418,0,8-3.582,8-8S397.418,372.352,393,372.352z M320.25,90.207v-21.48h31.583v36.5l-31.597-14.745
		C320.239,90.39,320.25,90.3,320.25,90.207z M16,106.024l136.004-76.39L384,137.894v14.479L155.049,45.534
		c-1.074-0.502-2.229-0.751-3.382-0.751c-1.354,0-2.705,0.344-3.918,1.025L16,119.808V106.024z M32.25,372.352V129.297
		c0-0.087-0.01-0.171-0.013-0.258l119.767-67.271L367.75,162.445v209.907H32.25z"/>
	<path d="M184,236.414H56.333c-4.418,0-8,3.582-8,8v104.063c0,4.418,3.582,8,8,8H184c4.418,0,8-3.582,8-8V244.414
		C192,239.996,188.418,236.414,184,236.414z M64.333,252.414h47.833v88.063H64.333V252.414z M176,340.477h-47.833v-88.063H176
		V340.477z"/>
	<path d="M344,236.414H216c-4.418,0-8,3.582-8,8v104.063c0,4.418,3.582,8,8,8h128c4.418,0,8-3.582,8-8V244.414
		C352,239.996,348.418,236.414,344,236.414z M224,252.414h48v88.063h-48V252.414z M336,340.477h-48v-88.063h48V340.477z"/>
	<path d="M347.383,172.354l-127.42-59.46c-1.197-0.559-2.459-0.796-3.695-0.746c-4.496-0.152-8.268,3.488-8.268,7.996v92.5
		c0,4.418,3.582,8,8,8h128c4.418,0,8-3.582,8-8v-33.04C352,176.495,350.2,173.669,347.383,172.354z M224,132.434l48,22.399v49.81
		h-48V132.434z M336,204.644h-48V162.3l48,22.399V204.644z"/>
	<path d="M191.966,104.27c-0.01-0.118-0.024-0.234-0.038-0.351c-0.017-0.134-0.037-0.268-0.061-0.401
		c-0.025-0.137-0.053-0.273-0.085-0.408c-0.026-0.109-0.053-0.217-0.084-0.325c-0.041-0.148-0.086-0.293-0.136-0.438
		c-0.033-0.097-0.069-0.193-0.106-0.289c-0.056-0.144-0.114-0.285-0.178-0.425c-0.045-0.098-0.092-0.195-0.141-0.292
		c-0.065-0.128-0.131-0.254-0.203-0.378c-0.061-0.107-0.125-0.211-0.191-0.315c-0.068-0.107-0.137-0.212-0.21-0.315
		c-0.08-0.114-0.164-0.225-0.251-0.335c-0.069-0.088-0.139-0.174-0.211-0.259c-0.097-0.114-0.198-0.224-0.303-0.333
		c-0.074-0.077-0.148-0.152-0.225-0.226c-0.107-0.103-0.218-0.203-0.331-0.301c-0.088-0.075-0.177-0.148-0.267-0.22
		c-0.107-0.084-0.215-0.165-0.326-0.244c-0.113-0.08-0.228-0.156-0.345-0.23c-0.097-0.061-0.194-0.121-0.294-0.179
		c-0.142-0.082-0.288-0.158-0.436-0.231c-0.055-0.027-0.105-0.059-0.16-0.085l-27.667-12.91c-2.754-1.285-5.867-0.867-8.149,0.823
		c-0.143,0.07-0.287,0.134-0.428,0.213l-98.724,55.451c-2.666,1.498-4.14,4.294-4.08,7.152c0,0.02-0.003,0.039-0.003,0.059v64.167
		c0,4.418,3.582,8,8,8H184c4.418,0,8-3.582,8-8V104.94c0-0.063-0.008-0.124-0.009-0.187
		C191.987,104.592,191.98,104.431,191.966,104.27z M64.333,152.924l47.833-26.867v78.587H64.333V152.924z M128.167,204.644V117.07
		l28.548-16.035l19.286,9v94.608H128.167z"/>
</g>
<g>
</g>
<g>
</g>
<g>
</g>
<g>
</g>
<g>
</g>
<g>
</g>
<g>
</g>
<g>
</g>
<g>
</g>
<g>
</g>
<g>
</g>
<g>
</g>
<g>
</g>
<g>
</g>
<g>
</g>
</svg>
