<svg id="Capa_1" enable-background="new 0 0 512 512" height="512" viewBox="0 0 512 512" width="512" xmlns="http://www.w3.org/2000/svg"><g><path d="m257.749 70.27c0-13.656-11.109-24.765-24.765-24.765s-24.766 11.109-24.766 24.765c0 13.655 11.109 24.765 24.766 24.765 13.656-.001 24.765-11.11 24.765-24.765zm-34.53 0c0-5.385 4.381-9.765 9.766-9.765 5.384 0 9.765 4.38 9.765 9.765 0 5.384-4.381 9.765-9.765 9.765-5.385-.001-9.766-4.381-9.766-9.765z"/><path d="m281.981 78.863c-3.977 0-7.682 2.14-9.669 5.582l-30.612 53.021-16.312-28.255c-1.989-3.443-5.693-5.581-9.669-5.581-3.977 0-7.681 2.139-9.67 5.582l-14.451 25.03c-2.071 3.587-.842 8.174 2.745 10.245 3.588 2.072 8.174.842 10.245-2.745l11.13-19.278 17.321 30.002-20.895 36.19c-.323.561-.575 1.149-.793 1.747h-34.857l11.751-20.354c2.071-3.587.842-8.174-2.745-10.245-3.59-2.072-8.176-.842-10.245 2.745l-15.072 26.105c-1.988 3.443-1.988 7.722-.001 11.165 1.988 3.444 5.693 5.583 9.67 5.583h51.963 120.332c3.977 0 7.682-2.139 9.67-5.583 1.987-3.444 1.987-7.722-.001-11.165v.001l-60.165-104.208c-1.988-3.444-5.693-5.584-9.67-5.584zm-53.523 111.54 53.523-92.705 53.523 92.705z"/><path d="m496.057 461.794h-5.055v-122.262h3.858c4.142 0 7.5-3.358 7.5-7.5s-3.358-7.5-7.5-7.5h-3.858v-23.105c6.957-6.128 11.358-15.091 11.358-25.069 0-18.424-14.989-33.413-33.413-33.413s-33.412 14.989-33.412 33.413c0 9.977 4.401 18.941 11.357 25.068v23.106h-3.857c-4.143 0-7.5 3.358-7.5 7.5s3.357 7.5 7.5 7.5h3.857v5.281c-23.212 16.075-83.061 48.135-190.893 48.135-107.83 0-167.681-32.06-190.893-48.135v-5.281h3.857c4.143 0 7.5-3.358 7.5-7.5s-3.357-7.5-7.5-7.5h-3.857v-23.106c6.956-6.128 11.357-15.091 11.357-25.068 0-18.424-14.988-33.413-33.412-33.413s-33.413 14.989-33.413 33.413c0 9.977 4.402 18.941 11.358 25.069v23.105h-3.856c-4.143 0-7.5 3.358-7.5 7.5s3.358 7.5 7.5 7.5h3.858v37.992c0 4.142 3.358 7.5 7.5 7.5 4.143 0 7.5-3.358 7.5-7.5v-37.992h14.109v122.262h-14.109v-51.584c0-4.142-3.357-7.5-7.5-7.5-4.142 0-7.5 3.358-7.5 7.5v51.584h-5.055c-8.791 0-15.943 7.153-15.943 15.944v16.532c0 6.463 5.259 11.721 11.722 11.721h62.661c6.463 0 11.722-5.258 11.722-11.721v-16.532c0-8.791-7.151-15.943-15.942-15.943h-5.055v-99.096c29.155 17.887 90.228 45.249 190.893 45.249 100.666 0 161.738-27.363 190.893-45.249v99.096h-5.055c-8.791 0-15.942 7.152-15.942 15.943v16.532c0 6.463 5.259 11.721 11.722 11.721h62.661c6.463 0 11.722-5.258 11.722-11.721v-16.532c-.002-8.791-7.154-15.944-15.945-15.944zm-453.004-203.848c10.152 0 18.412 8.26 18.412 18.413s-8.26 18.413-18.412 18.413c-10.153 0-18.413-8.26-18.413-18.413s8.259-18.413 18.413-18.413zm-7.055 66.586v-15.517c2.276.491 4.634.756 7.055.756s4.779-.265 7.055-.756v15.517zm35.106 153.206v13.253h-56.104v-13.253c0-.52.423-.943.943-.943h54.219c.52-.001.942.423.942.943zm397.843-219.792c10.153 0 18.413 8.26 18.413 18.413s-8.26 18.413-18.413 18.413c-10.152 0-18.412-8.26-18.412-18.413s8.26-18.413 18.412-18.413zm-7.054 51.069c2.276.491 4.634.756 7.055.756s4.779-.265 7.055-.756v15.517h-14.109v-15.517zm0 30.517h14.109v122.262h-14.109zm35.107 151.459h-56.104v-13.253c0-.52.423-.943.942-.943h54.219c.52 0 .943.423.943.943z"/><path d="m96.821 244.899h318.357c9.409 0 17.064-7.655 17.064-17.064v-204.762c0-9.409-7.655-17.064-17.064-17.064h-48.298c-4.143 0-7.5 3.358-7.5 7.5s3.357 7.5 7.5 7.5h48.298c1.139 0 2.064.926 2.064 2.064v204.763c0 1.138-.926 2.064-2.064 2.064h-318.357c-1.139 0-2.064-.926-2.064-2.064v-204.763c0-1.138.926-2.064 2.064-2.064h237.373c4.143 0 7.5-3.358 7.5-7.5s-3.357-7.5-7.5-7.5h-237.373c-9.409 0-17.064 7.655-17.064 17.064v204.763c0 9.409 7.655 17.063 17.064 17.063z"/></g></svg>