<svg id="regular" enable-background="new 0 0 24 24" height="512" viewBox="0 0 24 24" width="512" xmlns="http://www.w3.org/2000/svg"><path d="m13.66 4.96 2.18 2.82 2.06 2.68 1.16 1.5c.13.17.33.28.55.29s.42-.07.58-.23l1.88-1.91c1.24-1.28 1.93-2.95 1.93-4.73v-4.63c0-.41-.34-.75-.75-.75h-7.5c-.41 0-.75.34-.75.75v.74c-.91.7-1.48 1.81-1.5 3 0 .17.05.33.16.47z" fill="#ffb74d"/><path d="m10.34 19.04-2.18-2.82-2.06-2.68-1.16-1.5c-.13-.17-.33-.28-.55-.29s-.42.07-.58.23l-1.88 1.91c-1.24 1.28-1.93 2.95-1.93 4.73v4.63c0 .41.34.75.75.75h7.5c.41 0 .75-.34.75-.75v-.74c.91-.7 1.48-1.81 1.5-3 0-.17-.05-.33-.16-.47z" fill="#ffb74d"/><path d="m19.25 20h-14.5c-.414 0-.75-.336-.75-.75v-14.5c0-.414.336-.75.75-.75h14.5c.414 0 .75.336.75.75v14.5c0 .414-.336.75-.75.75z" fill="#eceff1"/><path d="m8.49 13.76c-.2-.39-.58-.66-1.02-.74-.45-.07-.91.07-1.23.38l-.14.14-3.31 3.2-2.79 2.6v3.91c0 .41.34.75.75.75h4.25v-1.217l1.52-1.233c.44-.54.68-1.19.68-1.88 0-.58-.17-1.13-.47-1.6l1.43-1.85.12-.15c.51-.66.6-1.57.21-2.31z" fill="#ffcc80"/><path d="m15.51 10.24c.2.39.58.66 1.02.74.45.07.91-.07 1.23-.38l.14-.14 3.31-3.2 2.79-2.6v-3.91c0-.41-.34-.75-.75-.75h-4.25v1.217l-1.52 1.233c-.44.54-.68 1.19-.68 1.88 0 .58.17 1.13.47 1.6l-1.43 1.85-.12.15c-.51.66-.6 1.57-.21 2.31z" fill="#ffcc80"/><path d="m4.75 16.57c-.414 0-.75-.336-.75-.75v-11.07c0-.414.336-.75.75-.75h12.65c.414 0 .75.336.75.75s-.336.75-.75.75h-11.9v10.32c0 .414-.336.75-.75.75z"/><path d="m19.25 20h-12.75c-.414 0-.75-.336-.75-.75s.336-.75.75-.75h12v-10.32c0-.414.336-.75.75-.75s.75.336.75.75v11.07c0 .414-.336.75-.75.75z"/><path d="m5.768 22.004c-.196 0-.393-.077-.54-.229-.288-.298-.279-.773.02-1.061.291-.281.452-.653.452-1.048s-.161-.767-.453-1.048c-.276-.267-.307-.698-.071-1.001l1.919-2.467c.134-.173.173-.391.11-.592l-3.387 3.266c-.297.288-.771.279-1.061-.02-.288-.298-.279-.773.02-1.061l3.466-3.342c.322-.309.777-.45 1.223-.379.447.073.821.343 1.027.739.385.742.3 1.648-.214 2.31l-1.552 1.995c.308.475.473 1.025.473 1.6 0 .806-.324 1.562-.912 2.128-.145.141-.333.21-.52.21z"/><path d="m8.25 24h-7.5c-.414 0-.75-.336-.75-.75v-4.63c0-1.776.687-3.455 1.935-4.726l1.879-1.919c.289-.297.765-.301 1.061-.012.296.29.301.765.011 1.061l-1.88 1.92c-.971.99-1.506 2.295-1.506 3.676v3.88h6v-.38c0-.264.139-.509.365-.644.685-.409 1.12-1.172 1.135-1.99.008-.415.346-.762.764-.736.414.008.744.35.736.764-.022 1.182-.587 2.295-1.5 3.001v.735c0 .414-.336.75-.75.75z"/><path d="m16.765 10.995c-.077 0-.154-.006-.231-.019-.447-.073-.821-.343-1.027-.739-.385-.742-.3-1.648.214-2.31l1.552-1.995c-.308-.473-.473-1.023-.473-1.598 0-.806.324-1.562.912-2.128.298-.287.773-.278 1.061.02s.279.773-.02 1.061c-.292.28-.453.652-.453 1.047s.161.767.453 1.048c.276.267.307.698.071 1.001l-1.919 2.467c-.134.173-.173.391-.11.592l3.387-3.266c.298-.287.773-.278 1.061.02s.279.773-.02 1.061l-3.466 3.342c-.265.255-.624.396-.992.396z"/><path d="m19.65 12.25c-.189 0-.379-.071-.525-.214-.296-.29-.301-.765-.011-1.061l1.88-1.92c.971-.989 1.506-2.294 1.506-3.675v-3.88h-6v.38c0 .264-.139.509-.365.644-.685.409-1.12 1.171-1.135 1.99-.008.41-.342.736-.75.736-.005 0-.01 0-.015 0-.413-.008-.743-.35-.735-.764.022-1.182.587-2.295 1.5-3.001v-.735c0-.414.336-.75.75-.75h7.5c.414 0 .75.336.75.75v4.63c0 1.776-.687 3.455-1.935 4.726l-1.879 1.919c-.147.15-.342.225-.536.225z"/></svg>